<?xml version="1.0" encoding="UTF-8" standalone="no"?>
<svg
   xmlns:dc="http://purl.org/dc/elements/1.1/"
   xmlns:cc="http://creativecommons.org/ns#"
   xmlns:rdf="http://www.w3.org/1999/02/22-rdf-syntax-ns#"
   xmlns:svg="http://www.w3.org/2000/svg"
   xmlns="http://www.w3.org/2000/svg"
   viewBox="0 0 188.77333 29.92"
   height="29.92"
   width="188.77333"
   xml:space="preserve"
   id="svg2"
   version="1.1"><metadata
     id="metadata8"><rdf:RDF><cc:Work
         rdf:about=""><dc:format>image/svg+xml</dc:format><dc:type
           rdf:resource="http://purl.org/dc/dcmitype/StillImage" /></cc:Work></rdf:RDF></metadata><defs
     id="defs6" /><g
     transform="matrix(1.3333333,0,0,-1.3333333,0,29.92)"
     id="g10"><g
       transform="scale(0.1)"
       id="g12"><path
         id="path14"
         style="fill:#ffffff;fill-opacity:1;fill-rule:nonzero;stroke:none"
         d="M 60.332,182.723 H 0 v 37.304 H 160.879 V 182.723 H 100.254 V 4.36328 H 60.332 V 182.723" /><path
         id="path16"
         style="fill:#ffffff;fill-opacity:1;fill-rule:nonzero;stroke:none"
         d="m 381.68,220.027 h 39.922 V 4.36328 H 381.68 V 220.027" /><path
         id="path18"
         style="fill:#ffffff;fill-opacity:1;fill-rule:nonzero;stroke:none"
         d="m 506.367,41.6719 h 8.457 c 21.563,0 35.547,1.4531 52.461,10.4844 21.27,11.6601 32.344,36.4335 32.344,59.4607 0,20.981 -9.043,40.801 -23.027,53.035 -16.602,15.157 -37.598,18.071 -62.657,18.071 h -7.578 z M 466.445,220.027 h 48.953 c 53.04,0 76.067,-14.281 88.606,-25.066 20.391,-17.481 35.547,-49.543 35.547,-83.344 0,-38.7654 -20.11,-76.0701 -51.582,-93.2615 C 568.152,7.28125 540.469,4.36328 516.27,4.36328 H 466.445 V 220.027" /><path
         id="path20"
         style="fill:#ffffff;fill-opacity:1;fill-rule:nonzero;stroke:none"
         d="m 771.609,37.3008 c 41.106,0 72.864,34.6758 72.864,74.6012 0,41.387 -32.344,75.192 -72.864,75.192 -40.496,0 -72.859,-33.805 -72.859,-75.192 0,-39.9254 31.77,-74.6012 72.859,-74.6012 z m 0,187.0972 c 61.204,0 112.786,-48.964 112.786,-112.781 C 884.395,49.8281 833.691,0 771.609,0 709.531,0 658.828,49.8281 658.828,111.617 c 0,63.817 51.582,112.781 112.781,112.781" /><path
         id="path22"
         style="fill:#ffffff;fill-opacity:1;fill-rule:nonzero;stroke:none"
         d="m 912.012,220.027 h 45.468 l 89.18,-156.7965 h 0.59 V 220.027 h 39.92 V 4.36328 h -44.59 L 952.52,161.156 h -0.579 V 4.36328 H 912.012 V 220.027" /><path
         id="path24"
         style="fill:#ffffff;fill-opacity:1;fill-rule:nonzero;stroke:none"
         d="m 1131.19,220.027 h 39.94 V 4.36328 h -39.94 V 220.027" /><path
         id="path26"
         style="fill:#ffffff;fill-opacity:1;fill-rule:nonzero;stroke:none"
         d="M 1414.6,64.3984 C 1397.7,24.7656 1356.31,0 1314.93,0 c -62.37,0 -112.5,52.1563 -112.5,113.07 0,59.453 49.26,111.328 111.63,111.328 35.84,0 81.02,-18.652 101.7,-65.863 h -45.46 c -15.45,17.774 -33.8,28.559 -57.7,28.559 -34.97,0 -70.24,-31.473 -70.24,-74.606 0,-40.5114 33.52,-75.1872 71.7,-75.1872 28.84,0 44.58,16.8984 54.2,27.0976 h 46.34" /><path
         id="path28"
         style="fill:#ffffff;fill-opacity:1;fill-rule:nonzero;stroke:none"
         d="m 181.25,220.027 h 55 c 28.953,0 51.406,-0.187 66.172,-6.472 28.976,-12.344 42.754,-39.938 42.754,-66.559 0,-31.297 -16.36,-54.246 -44.18,-62.371 L 350.742,4.37109 H 302.324 L 234.414,115.664 c 0,0 25.254,-0.059 37.012,-0.059 29.844,0 31.66,21.907 31.66,31.391 0,8.879 -4.688,21.504 -14.727,26.399 -13.054,6.363 -29.589,5.164 -47.722,5.164 H 220.742 V 4.36328 H 181.25 V 220.027" /></g></g></svg>