<?xml version="1.0" encoding="UTF-8"?>
<svg width="62px" height="34px" viewBox="0 0 62 34" version="1.1" xmlns="http://www.w3.org/2000/svg" xmlns:xlink="http://www.w3.org/1999/xlink">
    <title>Combined Shape</title>
    <g id="STYLEGUIDE" stroke="none" stroke-width="1" fill-rule="evenodd">
        <g id="D:-COMPARE" transform="translate(-1580.000000, -583.000000)">
            <g id="Compare" transform="translate(240.000000, 560.000000)">
                <g id="-&gt;" transform="translate(1340.000000, 23.000000)">
                    <path d="M45,30 C46.1045695,30 47,30.8954305 47,32 C47,33.1045695 46.1045695,34 45,34 C43.8954305,34 43,33.1045695 43,32 C43,30.8954305 43.8954305,30 45,30 Z M50,25 C51.1045695,25 52,25.8954305 52,27 C52,28.1045695 51.1045695,29 50,29 C48.8954305,29 48,28.1045695 48,27 C48,25.8954305 48.8954305,25 50,25 Z M55,20 C56.1045695,20 57,20.8954305 57,22 C57,23.1045695 56.1045695,24 55,24 C53.8954305,24 53,23.1045695 53,22 C53,20.8954305 53.8954305,20 55,20 Z M60,15 L60.1492623,15.0054857 C61.1841222,15.0818349 62,15.9456382 62,17 C62,18.1045695 61.1045695,19 60,19 C58.8954305,19 58,18.1045695 58,17 C58,15.8954305 58.8954305,15 60,15 L60,15 Z M50,15 C51.1045695,15 52,15.8954305 52,17 C52,18.1045695 51.1045695,19 50,19 C48.8954305,19 48,18.1045695 48,17 C48,15.8954305 48.8954305,15 50,15 Z M44,15 C45.1045695,15 46,15.8954305 46,17 C46,18.1045695 45.1045695,19 44,19 C42.8954305,19 42,18.1045695 42,17 C42,15.8954305 42.8954305,15 44,15 Z M38,15 C39.1045695,15 40,15.8954305 40,17 C40,18.1045695 39.1045695,19 38,19 C36.8954305,19 36,18.1045695 36,17 C36,15.8954305 36.8954305,15 38,15 Z M32,15 C33.1045695,15 34,15.8954305 34,17 C34,18.1045695 33.1045695,19 32,19 C30.8954305,19 30,18.1045695 30,17 C30,15.8954305 30.8954305,15 32,15 Z M26,15 C27.1045695,15 28,15.8954305 28,17 C28,18.1045695 27.1045695,19 26,19 C24.8954305,19 24,18.1045695 24,17 C24,15.8954305 24.8954305,15 26,15 Z M20,15 C21.1045695,15 22,15.8954305 22,17 C22,18.1045695 21.1045695,19 20,19 C18.8954305,19 18,18.1045695 18,17 C18,15.8954305 18.8954305,15 20,15 Z M14,15 C15.1045695,15 16,15.8954305 16,17 C16,18.1045695 15.1045695,19 14,19 C12.8954305,19 12,18.1045695 12,17 C12,15.8954305 12.8954305,15 14,15 Z M8,15 C9.1045695,15 10,15.8954305 10,17 C10,18.1045695 9.1045695,19 8,19 C6.8954305,19 6,18.1045695 6,17 C6,15.8954305 6.8954305,15 8,15 Z M2,15 C3.1045695,15 4,15.8954305 4,17 C4,18.1045695 3.1045695,19 2,19 C0.8954305,19 0,18.1045695 0,17 C0,15.8954305 0.8954305,15 2,15 Z M55,10 C56.1045695,10 57,10.8954305 57,12 C57,13.1045695 56.1045695,14 55,14 C53.8954305,14 53,13.1045695 53,12 C53,10.8954305 53.8954305,10 55,10 Z M50,5 C51.1045695,5 52,5.8954305 52,7 C52,8.1045695 51.1045695,9 50,9 C48.8954305,9 48,8.1045695 48,7 C48,5.8954305 48.8954305,5 50,5 Z M45,0 C46.1045695,0 47,0.8954305 47,2 C47,3.1045695 46.1045695,4 45,4 C43.8954305,4 43,3.1045695 43,2 C43,0.8954305 43.8954305,0 45,0 Z" id="Combined-Shape"></path>
                </g>
            </g>
        </g>
    </g>
</svg>
