<?xml version="1.0" encoding="UTF-8"?>
<svg width="32px" height="20px" viewBox="0 0 32 20" version="1.1" xmlns="http://www.w3.org/2000/svg" xmlns:xlink="http://www.w3.org/1999/xlink">
    <title>Arrow - Small - Neon Blue</title>
    <g id="MOBILE" stroke="none" stroke-width="1" fill-rule="evenodd">
        <g id="1.-PRODUCTS-/-1.X.1.1-COMPARE---2" transform="translate(-270.000000, -600.000000)">
            <g id="Compare" transform="translate(0.000000, 580.000000)">
                <g id="Combined-Shape" transform="translate(270.000000, 20.000000)">
                    <path d="M22,18 C22.5522847,18 23,18.4477153 23,19 C23,19.5522847 22.5522847,20 22,20 C21.4477153,20 21,19.5522847 21,19 C21,18.4477153 21.4477153,18 22,18 Z M25,15 C25.5522847,15 26,15.4477153 26,16 C26,16.5522847 25.5522847,17 25,17 C24.4477153,17 24,16.5522847 24,16 C24,15.4477153 24.4477153,15 25,15 Z M28,12 C28.5522847,12 29,12.4477153 29,13 C29,13.5522847 28.5522847,14 28,14 C27.4477153,14 27,13.5522847 27,13 C27,12.4477153 27.4477153,12 28,12 Z M31,9 C31.5522847,9 32,9.44771525 32,10 C32,10.5522847 31.5522847,11 31,11 C30.4477153,11 30,10.5522847 30,10 C30,9.44771525 30.4477153,9 31,9 Z M25,9 C25.5522847,9 26,9.44771525 26,10 C26,10.5522847 25.5522847,11 25,11 C24.4477153,11 24,10.5522847 24,10 C24,9.44771525 24.4477153,9 25,9 Z M21,9 C21.5522847,9 22,9.44771525 22,10 C22,10.5522847 21.5522847,11 21,11 C20.4477153,11 20,10.5522847 20,10 C20,9.44771525 20.4477153,9 21,9 Z M17,9 C17.5522847,9 18,9.44771525 18,10 C18,10.5522847 17.5522847,11 17,11 C16.4477153,11 16,10.5522847 16,10 C16,9.44771525 16.4477153,9 17,9 Z M13,9 C13.5522847,9 14,9.44771525 14,10 C14,10.5522847 13.5522847,11 13,11 C12.4477153,11 12,10.5522847 12,10 C12,9.44771525 12.4477153,9 13,9 Z M9,9 C9.55228475,9 10,9.44771525 10,10 C10,10.5522847 9.55228475,11 9,11 C8.44771525,11 8,10.5522847 8,10 C8,9.44771525 8.44771525,9 9,9 Z M5,9 C5.55228475,9 6,9.44771525 6,10 C6,10.5522847 5.55228475,11 5,11 C4.44771525,11 4,10.5522847 4,10 C4,9.44771525 4.44771525,9 5,9 Z M1,9 C1.55228475,9 2,9.44771525 2,10 C2,10.5522847 1.55228475,11 1,11 C0.44771525,11 0,10.5522847 0,10 C0,9.44771525 0.44771525,9 1,9 Z M28,6 C28.5522847,6 29,6.44771525 29,7 C29,7.55228475 28.5522847,8 28,8 C27.4477153,8 27,7.55228475 27,7 C27,6.44771525 27.4477153,6 28,6 Z M25,3 C25.5522847,3 26,3.44771525 26,4 C26,4.55228475 25.5522847,5 25,5 C24.4477153,5 24,4.55228475 24,4 C24,3.44771525 24.4477153,3 25,3 Z M22,0 C22.5522847,0 23,0.44771525 23,1 C23,1.55228475 22.5522847,2 22,2 C21.4477153,2 21,1.55228475 21,1 C21,0.44771525 21.4477153,0 22,0 Z"></path>
                </g>
            </g>
        </g>
    </g>
</svg>
