<?xml version="1.0" encoding="UTF-8"?>
<svg width="24px" height="18px" viewBox="0 0 24 18" version="1.1" xmlns="http://www.w3.org/2000/svg" xmlns:xlink="http://www.w3.org/1999/xlink">
    <title>Arrow - Small - Neon Blue</title>
    <g id="MOBILE" stroke="none" stroke-width="1" fill="none" fill-rule="evenodd">
        <g id="X.-GLOBAL-/-FRAMEWORK-/-NAVIGATION---2" transform="translate(-21.000000, -21.000000)" fill="#29BDFF">
            <g id="Group" transform="translate(21.000000, 21.000000)">
                <g id="Arrow---Small---Neon-Blue" transform="translate(12.000000, 9.000000) scale(-1, 1) translate(-12.000000, -9.000000) ">
                    <path d="M15,16 C15.5522847,16 16,16.4477153 16,17 C16,17.5522847 15.5522847,18 15,18 C14.4477153,18 14,17.5522847 14,17 C14,16.4477153 14.4477153,16 15,16 Z M17,14 C17.5522847,14 18,14.4477153 18,15 C18,15.5522847 17.5522847,16 17,16 C16.4477153,16 16,15.5522847 16,15 C16,14.4477153 16.4477153,14 17,14 Z M19,12 C19.5522847,12 20,12.4477153 20,13 C20,13.5522847 19.5522847,14 19,14 C18.4477153,14 18,13.5522847 18,13 C18,12.4477153 18.4477153,12 19,12 Z M21,10 C21.5522847,10 22,10.4477153 22,11 C22,11.5522847 21.5522847,12 21,12 C20.4477153,12 20,11.5522847 20,11 C20,10.4477153 20.4477153,10 21,10 Z M23,8.05882353 C23.5522847,8.05882353 24,8.50653878 24,9.05882353 C24,9.61110828 23.5522847,10.0588235 23,10.0588235 C22.4477153,10.0588235 22,9.61110828 22,9.05882353 C22,8.50653878 22.4477153,8.05882353 23,8.05882353 Z M16,8.05882353 C16.5522847,8.05882353 17,8.50653878 17,9.05882353 C17,9.61110828 16.5522847,10.0588235 16,10.0588235 C15.4477153,10.0588235 15,9.61110828 15,9.05882353 C15,8.50653878 15.4477153,8.05882353 16,8.05882353 Z M13,8.05882353 C13.5522847,8.05882353 14,8.50653878 14,9.05882353 C14,9.61110828 13.5522847,10.0588235 13,10.0588235 C12.4477153,10.0588235 12,9.61110828 12,9.05882353 C12,8.50653878 12.4477153,8.05882353 13,8.05882353 Z M10,8.05882353 C10.5522847,8.05882353 11,8.50653878 11,9.05882353 C11,9.61110828 10.5522847,10.0588235 10,10.0588235 C9.44771525,10.0588235 9,9.61110828 9,9.05882353 C9,8.50653878 9.44771525,8.05882353 10,8.05882353 Z M7,8.05882353 C7.55228475,8.05882353 8,8.50653878 8,9.05882353 C8,9.61110828 7.55228475,10.0588235 7,10.0588235 C6.44771525,10.0588235 6,9.61110828 6,9.05882353 C6,8.50653878 6.44771525,8.05882353 7,8.05882353 Z M4,8.05882353 C4.55228475,8.05882353 5,8.50653878 5,9.05882353 C5,9.61110828 4.55228475,10.0588235 4,10.0588235 C3.44771525,10.0588235 3,9.61110828 3,9.05882353 C3,8.50653878 3.44771525,8.05882353 4,8.05882353 Z M1,8.05882353 C1.55228475,8.05882353 2,8.50653878 2,9.05882353 C2,9.61110828 1.55228475,10.0588235 1,10.0588235 C0.44771525,10.0588235 0,9.61110828 0,9.05882353 C0,8.50653878 0.44771525,8.05882353 1,8.05882353 Z M19,8 C19.5522847,8 20,8.44771525 20,9 C20,9.55228475 19.5522847,10 19,10 C18.4477153,10 18,9.55228475 18,9 C18,8.44771525 18.4477153,8 19,8 Z M21,6 C21.5522847,6 22,6.44771525 22,7 C22,7.55228475 21.5522847,8 21,8 C20.4477153,8 20,7.55228475 20,7 C20,6.44771525 20.4477153,6 21,6 Z M19,4 C19.5522847,4 20,4.44771525 20,5 C20,5.55228475 19.5522847,6 19,6 C18.4477153,6 18,5.55228475 18,5 C18,4.44771525 18.4477153,4 19,4 Z M17,2 C17.5522847,2 18,2.44771525 18,3 C18,3.55228475 17.5522847,4 17,4 C16.4477153,4 16,3.55228475 16,3 C16,2.44771525 16.4477153,2 17,2 Z M15,0 C15.5522847,0 16,0.44771525 16,1 C16,1.55228475 15.5522847,2 15,2 C14.4477153,2 14,1.55228475 14,1 C14,0.44771525 14.4477153,0 15,0 Z" id="Combined-Shape"></path>
                </g>
            </g>
        </g>
    </g>
</svg>