<?xml version="1.0" encoding="UTF-8"?>
<svg width="50px" height="34px" viewBox="0 0 50 34" version="1.1" xmlns="http://www.w3.org/2000/svg" xmlns:xlink="http://www.w3.org/1999/xlink">
    <title>Combined Shape</title>
    <g id="DESKTOP" stroke="none" stroke-width="1" fill-rule="evenodd">
        <g id="0.-FRAMEWORK-/-NAVIGATION---5" transform="translate(-410.000000, -133.000000)">
            <g id="Sub-Navigation" transform="translate(60.000000, 118.000000)">
                <path d="M383,45 C384.104569,45 385,45.8954305 385,47 C385,48.1045695 384.104569,49 383,49 C381.895431,49 381,48.1045695 381,47 C381,45.8954305 381.895431,45 383,45 Z M388,40 C389.104569,40 390,40.8954305 390,42 C390,43.1045695 389.104569,44 388,44 C386.895431,44 386,43.1045695 386,42 C386,40.8954305 386.895431,40 388,40 Z M393,35 C394.104569,35 395,35.8954305 395,37 C395,38.1045695 394.104569,39 393,39 C391.895431,39 391,38.1045695 391,37 C391,35.8954305 391.895431,35 393,35 Z M398,30 L398.149262,30.0054857 C399.184122,30.0818349 400,30.9456382 400,32 C400,33.1045695 399.104569,34 398,34 C396.895431,34 396,33.1045695 396,32 C396,30.8954305 396.895431,30 398,30 L398,30 Z M388,30 C389.104569,30 390,30.8954305 390,32 C390,33.1045695 389.104569,34 388,34 C386.895431,34 386,33.1045695 386,32 C386,30.8954305 386.895431,30 388,30 Z M382,30 C383.104569,30 384,30.8954305 384,32 C384,33.1045695 383.104569,34 382,34 C380.895431,34 380,33.1045695 380,32 C380,30.8954305 380.895431,30 382,30 Z M376,30 C377.104569,30 378,30.8954305 378,32 C378,33.1045695 377.104569,34 376,34 C374.895431,34 374,33.1045695 374,32 C374,30.8954305 374.895431,30 376,30 Z M370,30 C371.104569,30 372,30.8954305 372,32 C372,33.1045695 371.104569,34 370,34 C368.895431,34 368,33.1045695 368,32 C368,30.8954305 368.895431,30 370,30 Z M364,30 C365.104569,30 366,30.8954305 366,32 C366,33.1045695 365.104569,34 364,34 C362.895431,34 362,33.1045695 362,32 C362,30.8954305 362.895431,30 364,30 Z M358,30 C359.104569,30 360,30.8954305 360,32 C360,33.1045695 359.104569,34 358,34 C356.895431,34 356,33.1045695 356,32 C356,30.8954305 356.895431,30 358,30 Z M352,30 C353.104569,30 354,30.8954305 354,32 C354,33.1045695 353.104569,34 352,34 C350.895431,34 350,33.1045695 350,32 C350,30.8954305 350.895431,30 352,30 Z M393,25 C394.104569,25 395,25.8954305 395,27 C395,28.1045695 394.104569,29 393,29 C391.895431,29 391,28.1045695 391,27 C391,25.8954305 391.895431,25 393,25 Z M388,20 C389.104569,20 390,20.8954305 390,22 C390,23.1045695 389.104569,24 388,24 C386.895431,24 386,23.1045695 386,22 C386,20.8954305 386.895431,20 388,20 Z M383,15 C384.104569,15 385,15.8954305 385,17 C385,18.1045695 384.104569,19 383,19 C381.895431,19 381,18.1045695 381,17 C381,15.8954305 381.895431,15 383,15 Z" id="Combined-Shape"></path>
            </g>
        </g>
    </g>
</svg>