<?xml version="1.0" encoding="UTF-8"?>
<svg width="24px" height="24px" viewBox="0 0 24 24" version="1.1" xmlns="http://www.w3.org/2000/svg" xmlns:xlink="http://www.w3.org/1999/xlink">
    <title>Combined Shape</title>
    <g id="BREAKPOINTS" stroke="none" stroke-width="1" fill-rule="evenodd">
        <g id="Panel" transform="translate(-908.000000, -28.000000)">
            <path d="M910,48 C911.104569,48 912,48.8954305 912,50 C912,51.1045695 911.104569,52 910,52 C908.895431,52 908,51.1045695 908,50 C908,48.8954305 908.895431,48 910,48 Z M930,48 C931.104569,48 932,48.8954305 932,50 C932,51.1045695 931.104569,52 930,52 C928.895431,52 928,51.1045695 928,50 C928,48.8954305 928.895431,48 930,48 Z M915,43 C916.104569,43 917,43.8954305 917,45 C917,46.1045695 916.104569,47 915,47 C913.895431,47 913,46.1045695 913,45 C913,43.8954305 913.895431,43 915,43 Z M925,43 C926.104569,43 927,43.8954305 927,45 C927,46.1045695 926.104569,47 925,47 C923.895431,47 923,46.1045695 923,45 C923,43.8954305 923.895431,43 925,43 Z M920,38 L920.149262,38.0054857 C921.184122,38.0818349 922,38.9456382 922,40 C922,41.1045695 921.104569,42 920,42 C918.895431,42 918,41.1045695 918,40 C918,38.8954305 918.895431,38 920,38 L920,38 Z M925,33 C926.104569,33 927,33.8954305 927,35 C927,36.1045695 926.104569,37 925,37 C923.895431,37 923,36.1045695 923,35 C923,33.8954305 923.895431,33 925,33 Z M915,33 C916.104569,33 917,33.8954305 917,35 C917,36.1045695 916.104569,37 915,37 C913.895431,37 913,36.1045695 913,35 C913,33.8954305 913.895431,33 915,33 Z M930,28 C931.104569,28 932,28.8954305 932,30 C932,31.1045695 931.104569,32 930,32 C928.895431,32 928,31.1045695 928,30 C928,28.8954305 928.895431,28 930,28 Z M910,28 C911.104569,28 912,28.8954305 912,30 C912,31.1045695 911.104569,32 910,32 C908.895431,32 908,31.1045695 908,30 C908,28.8954305 908.895431,28 910,28 Z" id="Combined-Shape"></path>
        </g>
    </g>
</svg>
