<?xml version="1.0" encoding="UTF-8"?>
<svg width="20px" height="20px" viewBox="0 0 20 20" version="1.1" xmlns="http://www.w3.org/2000/svg" xmlns:xlink="http://www.w3.org/1999/xlink">
    <title>M: Icon X</title>
    <g id="MOBILE" stroke="none" stroke-width="1" fill-rule="evenodd">
        <g id="1.-PRODUCTS-/-1.X.1.1-COMPARE---5" transform="translate(-280.000000, -20.000000)">
            <g id="Combined-Shape" transform="translate(280.000000, 20.000000)">
                <path d="M19,18 C19.5522847,18 20,18.4477153 20,19 C20,19.5522847 19.5522847,20 19,20 C18.4477153,20 18,19.5522847 18,19 C18,18.4477153 18.4477153,18 19,18 Z M1,18 C1.55228475,18 2,18.4477153 2,19 C2,19.5522847 1.55228475,20 1,20 C0.44771525,20 0,19.5522847 0,19 C0,18.4477153 0.44771525,18 1,18 Z M16,15 C16.5522847,15 17,15.4477153 17,16 C17,16.5522847 16.5522847,17 16,17 C15.4477153,17 15,16.5522847 15,16 C15,15.4477153 15.4477153,15 16,15 Z M4,15 C4.55228475,15 5,15.4477153 5,16 C5,16.5522847 4.55228475,17 4,17 C3.44771525,17 3,16.5522847 3,16 C3,15.4477153 3.44771525,15 4,15 Z M13,12 C13.5522847,12 14,12.4477153 14,13 C14,13.5522847 13.5522847,14 13,14 C12.4477153,14 12,13.5522847 12,13 C12,12.4477153 12.4477153,12 13,12 Z M7,12 C7.55228475,12 8,12.4477153 8,13 C8,13.5522847 7.55228475,14 7,14 C6.44771525,14 6,13.5522847 6,13 C6,12.4477153 6.44771525,12 7,12 Z M10,9 C10.5522847,9 11,9.44771525 11,10 C11,10.5522847 10.5522847,11 10,11 C9.44771525,11 9,10.5522847 9,10 C9,9.44771525 9.44771525,9 10,9 Z M7,6 C7.55228475,6 8,6.44771525 8,7 C8,7.55228475 7.55228475,8 7,8 C6.44771525,8 6,7.55228475 6,7 C6,6.44771525 6.44771525,6 7,6 Z M13,6 C13.5522847,6 14,6.44771525 14,7 C14,7.55228475 13.5522847,8 13,8 C12.4477153,8 12,7.55228475 12,7 C12,6.44771525 12.4477153,6 13,6 Z M4,3 C4.55228475,3 5,3.44771525 5,4 C5,4.55228475 4.55228475,5 4,5 C3.44771525,5 3,4.55228475 3,4 C3,3.44771525 3.44771525,3 4,3 Z M16,3 C16.5522847,3 17,3.44771525 17,4 C17,4.55228475 16.5522847,5 16,5 C15.4477153,5 15,4.55228475 15,4 C15,3.44771525 15.4477153,3 16,3 Z M1,0 C1.55228475,0 2,0.44771525 2,1 C2,1.55228475 1.55228475,2 1,2 C0.44771525,2 0,1.55228475 0,1 C0,0.44771525 0.44771525,0 1,0 Z M19,0 C19.5522847,0 20,0.44771525 20,1 C20,1.55228475 19.5522847,2 19,2 C18.4477153,2 18,1.55228475 18,1 C18,0.44771525 18.4477153,0 19,0 Z"></path>
            </g>
        </g>
    </g>
</svg>
