<?xml version="1.0" encoding="UTF-8"?>
<svg width="34px" height="34px" viewBox="0 0 34 34" version="1.1" xmlns="http://www.w3.org/2000/svg" xmlns:xlink="http://www.w3.org/1999/xlink">
    <title>Combined Shape</title>
    <g id="STYLEGUIDE" stroke="none" stroke-width="1" fill="none" fill-rule="evenodd">
        <g id="D:-BUTTONS---1" transform="translate(-1323.000000, -403.000000)" fill="#29BDFF">
            <g id="Close---Hover" transform="translate(1323.000000, 403.000000)">
                <path d="M2,30 C3.1045695,30 4,30.8954305 4,32 C4,33.1045695 3.1045695,34 2,34 C0.8954305,34 0,33.1045695 0,32 C0,30.8954305 0.8954305,30 2,30 Z M32,30 C33.1045695,30 34,30.8954305 34,32 C34,33.1045695 33.1045695,34 32,34 C30.8954305,34 30,33.1045695 30,32 C30,30.8954305 30.8954305,30 32,30 Z M7,25 C8.1045695,25 9,25.8954305 9,27 C9,28.1045695 8.1045695,29 7,29 C5.8954305,29 5,28.1045695 5,27 C5,25.8954305 5.8954305,25 7,25 Z M27,25 C28.1045695,25 29,25.8954305 29,27 C29,28.1045695 28.1045695,29 27,29 C25.8954305,29 25,28.1045695 25,27 C25,25.8954305 25.8954305,25 27,25 Z M12,20 C13.1045695,20 14,20.8954305 14,22 C14,23.1045695 13.1045695,24 12,24 C10.8954305,24 10,23.1045695 10,22 C10,20.8954305 10.8954305,20 12,20 Z M22,20 C23.1045695,20 24,20.8954305 24,22 C24,23.1045695 23.1045695,24 22,24 C20.8954305,24 20,23.1045695 20,22 C20,20.8954305 20.8954305,20 22,20 Z M17,15 L17.1492623,15.0054857 C18.1841222,15.0818349 19,15.9456382 19,17 C19,18.1045695 18.1045695,19 17,19 C15.8954305,19 15,18.1045695 15,17 C15,15.8954305 15.8954305,15 17,15 L17,15 Z M22,10 C23.1045695,10 24,10.8954305 24,12 C24,13.1045695 23.1045695,14 22,14 C20.8954305,14 20,13.1045695 20,12 C20,10.8954305 20.8954305,10 22,10 Z M12,10 C13.1045695,10 14,10.8954305 14,12 C14,13.1045695 13.1045695,14 12,14 C10.8954305,14 10,13.1045695 10,12 C10,10.8954305 10.8954305,10 12,10 Z M27,5 C28.1045695,5 29,5.8954305 29,7 C29,8.1045695 28.1045695,9 27,9 C25.8954305,9 25,8.1045695 25,7 C25,5.8954305 25.8954305,5 27,5 Z M7,5 C8.1045695,5 9,5.8954305 9,7 C9,8.1045695 8.1045695,9 7,9 C5.8954305,9 5,8.1045695 5,7 C5,5.8954305 5.8954305,5 7,5 Z M32,0 C33.1045695,0 34,0.8954305 34,2 C34,3.1045695 33.1045695,4 32,4 C30.8954305,4 30,3.1045695 30,2 C30,0.8954305 30.8954305,0 32,0 Z M2,0 C3.1045695,0 4,0.8954305 4,2 C4,3.1045695 3.1045695,4 2,4 C0.8954305,4 0,3.1045695 0,2 C0,0.8954305 0.8954305,0 2,0 Z" id="Combined-Shape"></path>
            </g>
        </g>
    </g>
</svg>