<?xml version="1.0" encoding="UTF-8"?>
<svg width="16px" height="20px" viewBox="0 0 16 20" version="1.1" xmlns="http://www.w3.org/2000/svg" xmlns:xlink="http://www.w3.org/1999/xlink">
    <title>Icon: Lock</title>
    <g id="DESKTOP" stroke="none" stroke-width="1" fill="none" fill-rule="evenodd">
        <g id="1.-PRODUCTS-/-1.1.2-PRODUCT-FAMILY---4-DRAWERS" transform="translate(-302.000000, -6870.000000)" fill="#372A86">
            <g id="Accordeon---Downloads" transform="translate(140.000000, 6378.000000)">
                <g id="Expanded" transform="translate(0.000000, 91.000000)">
                    <g id="Table" transform="translate(0.000000, 111.000000)">
                        <path d="M170,290 C172.209139,290 174,291.790861 174,294 L174,298 L176,298 C177.104569,298 178,298.895431 178,300 L178,308 C178,309.104569 177.104569,310 176,310 L164,310 C162.895431,310 162,309.104569 162,308 L162,300 C162,298.895431 162.895431,298 164,298 L166,298 L166,294 C166,291.790861 167.790861,290 170,290 Z M176,300 L164,300 L164,308 L176,308 L176,300 Z M170,302 C170.552285,302 171,302.447715 171,303 L171,304 C171,304.552285 170.552285,305 170,305 C169.447715,305 169,304.552285 169,304 L169,303 C169,302.447715 169.447715,302 170,302 Z M170,292 C168.945638,292 168.081835,292.815878 168.005486,293.850738 L168,294 L168,298 L172,298 L172,294 C172,292.895431 171.104569,292 170,292 Z" id="Icon:-Lock"></path>
                    </g>
                </g>
            </g>
        </g>
    </g>
</svg>