<?xml version="1.0" encoding="UTF-8"?>
<svg width="22" height="24" viewBox="0 0 22 24" version="1.1" xmlns="http://www.w3.org/2000/svg" xmlns:xlink="http://www.w3.org/1999/xlink">
    <path d="M13.39 1.991c.186-.52.757-.792 1.277-.609A11.016 11.016 0 0122 11.744c0 3.924-2.108 7.5-5.406 9.452l1.342.376a1 1 0 01-.54 1.926l-3.851-1.079a1 1 0 01-.693-1.232l1.079-3.852a1 1 0 111.925.539l-.48 1.716C18.189 18.02 20 15.032 20 11.744a9.01 9.01 0 00-6-8.476 1 1 0 01-.61-1.277zM3.205.732A.998.998 0 014.436.038l3.852 1.08a1 1 0 01.693 1.231L7.903 6.201a1.002 1.002 0 01-1.233.694 1 1 0 01-.693-1.233l.46-1.643C3.735 5.616 2 8.532 2 11.744a9.01 9.01 0 006 8.476 1 1 0 01-.668 1.886A11.017 11.017 0 010 11.744c0-3.88 2.062-7.42 5.298-9.388l-1.401-.392A1 1 0 013.204.732z" fill-rule="evenodd" />
</svg>