<?xml version="1.0" encoding="UTF-8"?>
<svg width="40px" height="40px" viewBox="0 0 40 40" version="1.1" xmlns="http://www.w3.org/2000/svg" xmlns:xlink="http://www.w3.org/1999/xlink">
    <title>Combined Shape</title>
    <g id="DESKTOP" stroke="none" stroke-width="1" fill-rule="evenodd">
        <g id="3.-SUPPORT-/-3.3-FAQ---2-SEARCH" transform="translate(-1260.000000, -550.000000)">
            <g id="→-Hover" transform="translate(520.000000, 541.000000)">
                <path d="M760,45 C761.104569,45 762,45.8954305 762,47 C762,48.1045695 761.104569,49 760,49 C758.895431,49 758,48.1045695 758,47 C758,45.8954305 758.895431,45 760,45 Z M760,39 C761.104569,39 762,39.8954305 762,41 C762,42.1045695 761.104569,43 760,43 C758.895431,43 758,42.1045695 758,41 C758,39.8954305 758.895431,39 760,39 Z M760,33 C761.104569,33 762,33.8954305 762,35 C762,36.1045695 761.104569,37 760,37 C758.895431,37 758,36.1045695 758,35 C758,33.8954305 758.895431,33 760,33 Z M772,27 C773.104569,27 774,27.8954305 774,29 C774,30.1045695 773.104569,31 772,31 C770.895431,31 770,30.1045695 770,29 C770,27.8954305 770.895431,27 772,27 Z M778,27 C779.104569,27 780,27.8954305 780,29 C780,30.1045695 779.104569,31 778,31 C776.895431,31 776,30.1045695 776,29 C776,27.8954305 776.895431,27 778,27 Z M766,27 C767.104569,27 768,27.8954305 768,29 C768,30.1045695 767.104569,31 766,31 C764.895431,31 764,30.1045695 764,29 C764,27.8954305 764.895431,27 766,27 Z M760,27 C761.104569,27 762,27.8954305 762,29 C762,30.1045695 761.104569,31 760,31 C758.895431,31 758,30.1045695 758,29 C758,27.8954305 758.895431,27 760,27 Z M754,27 C755.104569,27 756,27.8954305 756,29 C756,30.1045695 755.104569,31 754,31 C752.895431,31 752,30.1045695 752,29 C752,27.8954305 752.895431,27 754,27 Z M748,27 C749.104569,27 750,27.8954305 750,29 C750,30.1045695 749.104569,31 748,31 C746.895431,31 746,30.1045695 746,29 C746,27.8954305 746.895431,27 748,27 Z M742,27 C743.104569,27 744,27.8954305 744,29 C744,30.1045695 743.104569,31 742,31 C740.895431,31 740,30.1045695 740,29 C740,27.8954305 740.895431,27 742,27 Z M760,21 C761.104569,21 762,21.8954305 762,23 C762,24.1045695 761.104569,25 760,25 C758.895431,25 758,24.1045695 758,23 C758,21.8954305 758.895431,21 760,21 Z M760,15 C761.104569,15 762,15.8954305 762,17 C762,18.1045695 761.104569,19 760,19 C758.895431,19 758,18.1045695 758,17 C758,15.8954305 758.895431,15 760,15 Z M760,9 C761.104569,9 762,9.8954305 762,11 C762,12.1045695 761.104569,13 760,13 C758.895431,13 758,12.1045695 758,11 C758,9.8954305 758.895431,9 760,9 Z" id="Combined-Shape"></path>
            </g>
        </g>
    </g>
</svg>