<?xml version="1.0" encoding="UTF-8"?>
<svg width="60px" height="60px" viewBox="0 0 60 60" version="1.1" xmlns="http://www.w3.org/2000/svg" xmlns:xlink="http://www.w3.org/1999/xlink">
    <g id="DESKTOP" stroke-width="1" stroke="none" fill-rule="evenodd">
        <g id="1.-PRODUCTS-/-1.0.2-PRODUCT-FAMILY---1-DEFAULT" transform="translate(-160.000000, -2880.000000)">
            <g id="References" transform="translate(20.000000, 2500.000000)">
                <g id="Video" transform="translate(120.000000, 100.000000)">
                    <g id="Play" transform="translate(20.000000, 280.000000)">
                        <circle id="Oval" stroke-width="2" cx="30" cy="30" r="29" stroke="#FFFFFF" fill="#FFFFFF"></circle>
                        <path d="M26,40 C27.1045695,40 28,40.8954305 28,42 C28,43.1045695 27.1045695,44 26,44 C24.8954305,44 24,43.1045695 24,42 C24,40.8954305 24.8954305,40 26,40 Z M32,34 C33.1045695,34 34,34.8954305 34,36 C34,37.1045695 33.1045695,38 32,38 C30.8954305,38 30,37.1045695 30,36 C30,34.8954305 30.8954305,34 32,34 Z M26,34 C27.1045695,34 28,34.8954305 28,36 C28,37.1045695 27.1045695,38 26,38 C24.8954305,38 24,37.1045695 24,36 C24,34.8954305 24.8954305,34 26,34 Z M38,28 L38.1492623,28.0054857 C39.1841222,28.0818349 40,28.9456382 40,30 C40,31.1045695 39.1045695,32 38,32 C36.8954305,32 36,31.1045695 36,30 C36,28.8954305 36.8954305,28 38,28 L38,28 Z M26,28 C27.1045695,28 28,28.8954305 28,30 C28,31.1045695 27.1045695,32 26,32 C24.8954305,32 24,31.1045695 24,30 C24,28.8954305 24.8954305,28 26,28 Z M32,28 C33.1045695,28 34,28.8954305 34,30 C34,31.1045695 33.1045695,32 32,32 C30.8954305,32 30,31.1045695 30,30 C30,28.8954305 30.8954305,28 32,28 Z M26,22 C27.1045695,22 28,22.8954305 28,24 C28,25.1045695 27.1045695,26 26,26 C24.8954305,26 24,25.1045695 24,24 C24,22.8954305 24.8954305,22 26,22 Z M32,22 C33.1045695,22 34,22.8954305 34,24 C34,25.1045695 33.1045695,26 32,26 C30.8954305,26 30,25.1045695 30,24 C30,22.8954305 30.8954305,22 32,22 Z M26,16 C27.1045695,16 28,16.8954305 28,18 C28,19.1045695 27.1045695,20 26,20 C24.8954305,20 24,19.1045695 24,18 C24,16.8954305 24.8954305,16 26,16 Z" id="Combined-Shape" stroke="none"></path>
                    </g>
                </g>
            </g>
        </g>
    </g>
</svg>
