<?xml version="1.0" encoding="UTF-8"?>
<svg width="40px" height="4px" viewBox="0 0 40 4" version="1.1" xmlns="http://www.w3.org/2000/svg" xmlns:xlink="http://www.w3.org/1999/xlink">
    <title>Combined Shape</title>
    <g id="Page-1" stroke="none" stroke-width="1" fill="none" fill-rule="evenodd">
        <path d="M32,0 C33.1045695,0 34,0.8954305 34,2 C34,3.1045695 33.1045695,4 32,4 C30.8954305,4 30,3.1045695 30,2 C30,0.8954305 30.8954305,0 32,0 Z M38,0 C39.1045695,0 40,0.8954305 40,2 C40,3.1045695 39.1045695,4 38,4 C36.8954305,4 36,3.1045695 36,2 C36,0.8954305 36.8954305,0 38,0 Z M26,0 C27.1045695,0 28,0.8954305 28,2 C28,3.1045695 27.1045695,4 26,4 C24.8954305,4 24,3.1045695 24,2 C24,0.8954305 24.8954305,0 26,0 Z M20,0 C21.1045695,0 22,0.8954305 22,2 C22,3.1045695 21.1045695,4 20,4 C18.8954305,4 18,3.1045695 18,2 C18,0.8954305 18.8954305,0 20,0 Z M14,0 C15.1045695,0 16,0.8954305 16,2 C16,3.1045695 15.1045695,4 14,4 C12.8954305,4 12,3.1045695 12,2 C12,0.8954305 12.8954305,0 14,0 Z M8,0 C9.1045695,0 10,0.8954305 10,2 C10,3.1045695 9.1045695,4 8,4 C6.8954305,4 6,3.1045695 6,2 C6,0.8954305 6.8954305,0 8,0 Z M2,0 C3.1045695,0 4,0.8954305 4,2 C4,3.1045695 3.1045695,4 2,4 C0.8954305,4 0,3.1045695 0,2 C0,0.8954305 0.8954305,0 2,0 Z"></path>
    </g>
</svg>