<?xml version="1.0" encoding="UTF-8"?>
<svg width="20px" height="18px" viewBox="0 0 20 18" version="1.1" xmlns="http://www.w3.org/2000/svg" xmlns:xlink="http://www.w3.org/1999/xlink">
    <title>Combined Shape</title>
    <g id="MOBILE" stroke="none" stroke-width="1" fill="none" fill-rule="evenodd">
        <g id="1.-PRODUCTS-/-1.3-CONTROLS---1-DEFAULT" transform="translate(-20.000000, -181.000000)" fill="#372A86">
            <g id="Toolbar" transform="translate(20.000000, 180.000000)">
                <path d="M14,13 C15.3062521,13 16.4175144,13.8348501 16.8293257,15.0000889 L20,15 L20,17 L16.8289758,17.0009007 C16.4168852,18.1656226 15.3058822,19 14,19 C12.6941178,19 11.5831148,18.1656226 11.1710242,17.0009007 L0,17 L0,15 L11.1706743,15.0000889 C11.5824856,13.8348501 12.6937479,13 14,13 Z M14,15 C13.4477153,15 13,15.4477153 13,16 C13,16.5522847 13.4477153,17 14,17 C14.5522847,17 15,16.5522847 15,16 C15,15.4477153 14.5522847,15 14,15 Z M6,7 C7.30625206,7 8.41751442,7.8348501 8.82932572,9.00008893 L8.82932572,9.00008893 L20,9 L20,11 L8.82897577,11.0009007 C8.41688515,12.1656226 7.30588222,13 6,13 C4.69411778,13 3.58311485,12.1656226 3.17102423,11.0009007 L3.17102423,11.0009007 L0,11 L0,9 L3.17067428,9.00008893 C3.58248558,7.8348501 4.69374794,7 6,7 Z M6,9 C5.44771525,9 5,9.44771525 5,10 C5,10.5522847 5.44771525,11 6,11 C6.55228475,11 7,10.5522847 7,10 C7,9.44771525 6.55228475,9 6,9 Z M14,1 C15.3062521,1 16.4175144,1.8348501 16.8293257,3.00008893 L20,3 L20,5 L16.8289758,5.00090072 C16.4168852,6.16562257 15.3058822,7 14,7 C12.6941178,7 11.5831148,6.16562257 11.1710242,5.00090072 L0,5 L0,3 L11.1706743,3.00008893 C11.5824856,1.8348501 12.6937479,1 14,1 Z M14,3 C13.4477153,3 13,3.44771525 13,4 C13,4.55228475 13.4477153,5 14,5 C14.5522847,5 15,4.55228475 15,4 C15,3.44771525 14.5522847,3 14,3 Z" id="Combined-Shape"></path>
            </g>
        </g>
    </g>
</svg>