<?xml version="1.0" encoding="UTF-8"?>
<svg width="22px" height="22px" viewBox="0 0 22 22" version="1.1" xmlns="http://www.w3.org/2000/svg" xmlns:xlink="http://www.w3.org/1999/xlink">
    <title>Search</title>
    <g id="Symbols" stroke="none" stroke-width="1" fill-rule="evenodd">
        <g id="M:-Global-Navigation" transform="translate(-280.000000, -20.000000)">
            <g id="Search" transform="translate(280.000000, 20.000000)">
                <path d="M8,-9.41469125e-14 C12.418278,-9.41469125e-14 16,3.581722 16,8 C16,9.84865955 15.3729536,11.5508646 14.3199461,12.9055298 L21.2426407,19.8284271 L19.8284271,21.2426407 L12.9055298,14.3199461 C11.5508646,15.3729536 9.84865955,16 8,16 C3.581722,16 3.60600438e-13,12.418278 3.60600438e-13,8 C3.60600438e-13,3.581722 3.581722,-9.41469125e-14 8,-9.41469125e-14 Z M8,2 C4.6862915,2 2,4.6862915 2,8 C2,11.3137085 4.6862915,14 8,14 C11.3137085,14 14,11.3137085 14,8 C14,4.6862915 11.3137085,2 8,2 Z"></path>
            </g>
        </g>
    </g>
</svg>
