<?xml version="1.0" encoding="UTF-8"?>
<svg width="126px" height="20px" viewBox="0 0 126 20" version="1.1" xmlns="http://www.w3.org/2000/svg" xmlns:xlink="http://www.w3.org/1999/xlink">
    <title>Logo</title>
    <g id="Symbols" stroke="none" stroke-width="1" fill-rule="evenodd">
        <g id="D:-Global-Navigation" transform="translate(-657.000000, -30.000000)">
            <g id="Logo" transform="translate(657.000000, 30.000000)">
                <path d="M116.949292,-1.77635684e-15 C120.13866,-1.77635684e-15 124.159794,1.66220636 126,5.87013084 L121.954369,5.87013084 C120.579596,4.28635147 118.946126,3.32441273 116.819386,3.32441273 C113.706848,3.32441273 110.567958,6.1299435 110.567958,9.97435326 C110.567958,13.5849688 113.550961,16.6755873 116.949292,16.6755873 C119.515855,16.6755873 120.916609,15.1691198 121.772872,14.260333 L125.897189,14.260333 C124.39214,17.7925216 120.709131,20 117.026864,20 C111.475812,20 107.014112,15.3512489 107.014112,9.92268808 C107.014112,4.62310437 111.398611,-1.77635684e-15 116.949292,-1.77635684e-15 Z M68.6720308,1.77635684e-15 C74.1187867,1.77635684e-15 78.7092792,4.36440678 78.7092792,10.0516652 C78.7092792,15.558653 74.1971012,19.9996283 68.6720308,19.9996283 C63.1469603,19.9996283 58.6347824,15.558653 58.6347824,10.0516652 C58.6347824,4.36440678 63.2252749,1.77635684e-15 68.6720308,1.77635684e-15 Z M14.3181945,0.388938448 L14.3181945,3.71446625 L8.92228729,3.71446625 L8.92228729,19.6109872 L5.3695549,19.6109872 L5.3695549,3.71446625 L0,3.71446625 L0,0.388938448 L14.3181945,0.388938448 Z M37.5211892,0.389533155 L37.5211892,19.6104668 L33.9684568,19.6104668 L33.9684568,0.389533155 L37.5211892,0.389533155 Z M45.8693309,0.389198632 C50.589729,0.389198632 52.6396392,1.66224353 53.7557139,2.62381059 C55.5703094,4.18194321 56.9187295,7.03913916 56.9187295,10.0517023 C56.9187295,13.5069506 55.1297439,16.8313634 52.3278658,18.3645926 C50.5648613,19.351063 48.1003667,19.6101323 45.9469031,19.6101323 L41.5130396,19.6101323 L41.5130396,0.389198632 L45.8693309,0.389198632 Z M85.214209,0.389570324 L93.1510696,14.3644439 L93.2026607,14.3644439 L93.2026607,0.389570324 L96.7565065,0.389570324 L96.7565065,19.610504 L92.7880763,19.610504 L84.7729012,5.63637377 L84.7209389,5.63637377 L84.7209389,19.610504 L81.1674642,19.610504 L81.1674642,0.389570324 L85.214209,0.389570324 Z M104.228454,0.389533155 L104.228454,19.6104668 L100.673865,19.6104668 L100.673865,0.389533155 L104.228454,0.389533155 Z M26.9148058,0.966064526 C29.4939886,2.06701606 30.7202974,4.52575825 30.7202974,6.89826792 C30.7202974,9.68818763 29.2642412,11.7336084 26.7882406,12.458036 L31.2150521,19.610504 L26.905898,19.610504 L20.8619475,9.69153286 L21.0333198,9.69186325 C21.060551,9.69191487 21.090687,9.69197166 21.1234783,9.69203296 L21.6284586,9.69294413 C21.6784998,9.69303124 21.7301982,9.69312029 21.7833042,9.69321063 L22.1168355,9.69376301 C22.1745739,9.69385593 22.2332209,9.69394886 22.2925269,9.69404113 L22.8373373,9.69483679 C22.8983517,9.69491938 22.9592765,9.6949994 23.0198622,9.69507619 L24.1567245,9.69599316 L24.1567245,9.69599316 C26.812366,9.69599316 26.9741912,7.74423877 26.9741912,6.89826792 C26.9741912,6.10805085 26.5570087,4.98219596 25.6636294,4.546573 C24.5011599,3.97862771 23.0298862,4.08567499 21.4157165,4.08567499 L19.6452888,4.08567499 L19.6452888,19.610504 L16.1307858,19.610504 L16.1307858,0.389570324 L21.0256285,0.389570324 C23.6022132,0.389570324 25.6012747,0.406296461 26.9148058,0.966064526 Z M68.6720308,3.3255278 C65.0677073,3.3255278 62.1875147,6.3377193 62.1875147,10.0267618 C62.1875147,13.5845971 65.0150028,16.6755873 68.6720308,16.6755873 C72.3298011,16.6755873 75.1565468,13.5845971 75.1565468,10.0267618 C75.1565468,6.3377193 72.2782101,3.3255278 68.6720308,3.3255278 Z M45.7401676,3.71472643 L45.065772,3.71472643 L45.065772,16.2860913 L45.8184821,16.2860913 C47.7373733,16.2860913 48.9814977,16.1567425 50.4872891,15.3509144 C52.3805704,14.3116637 53.3656259,12.1041853 53.3656259,10.0517023 C53.3656259,8.18172019 52.5613247,6.41506839 51.3160868,5.32526762 C49.8385035,3.97416741 47.9708322,3.71472643 45.7401676,3.71472643 Z" id="TRIDONIC"></path>
            </g>
        </g>
    </g>
</svg>
