<svg width="50" height="34" xmlns="http://www.w3.org/2000/svg"><path d="M33 30a2 2 0 110 4 2 2 0 010-4zm5-5a2 2 0 110 4 2 2 0 010-4zm5-5a2 2 0 110 4 2 2 0 010-4zm5-5l.15.005A2 2 0 1148 15zm-10 0a2 2 0 110 4 2 2 0 010-4zm-6 0a2 2 0 110 4 2 2 0 010-4zm-6 0a2 2 0 110 4 2 2 0 010-4zm-6 0a2 2 0 110 4 2 2 0 010-4zm-6 0a2 2 0 110 4 2 2 0 010-4zm-6 0a2 2 0 110 4 2 2 0 010-4zm-6 0a2 2 0 110 4 2 2 0 010-4zm41-5a2 2 0 110 4 2 2 0 010-4zm-5-5a2 2 0 110 4 2 2 0 010-4zm-5-5a2 2 0 110 4 2 2 0 010-4z" fill="#372A86" fill-rule="evenodd"/></svg>